<?xml version="1.0" encoding="UTF-8" standalone="no"?>
<!DOCTYPE svg PUBLIC "-//W3C//DTD SVG 1.1//EN"
"http://www.w3.org/Graphics/SVG/1.1/DTD/svg11.dtd">
<svg viewBox="0 0 934 1209" version="1.1" xmlns="http://www.w3.org/2000/svg" xmlns:xlink="http://www.w3.org/1999/xlink">
<defs>
<style type="text/css"><![CDATA[
.g0_1{
fill: #FFFFFF;
}
]]></style>
</defs>
<path fill-rule="evenodd" d="M130,108.4H805.1V220.7H130V108.4Z" class="g0_1" />
<path fill-rule="evenodd" d="M130,220.6H805.1v34.5H130V220.6Z" class="g0_1" />
<path fill-rule="evenodd" d="M130,254.9H805.1v80.4H130V254.9Z" class="g0_1" />
<path fill-rule="evenodd" d="M130,335.2H805.1v59.7H130V335.2Z" class="g0_1" />
<path fill-rule="evenodd" d="M130,394.7H805.1v59.8H130V394.7Z" class="g0_1" />
<path fill-rule="evenodd" d="M130,454.3H805.1V617.2H130V454.3Z" class="g0_1" />
<path fill-rule="evenodd" d="M130,617H805.1V800.5H130V617Z" class="g0_1" />
<path fill-rule="evenodd" d="M130,800.4H805.1v80.3H130V800.4Z" class="g0_1" />
<path fill-rule="evenodd" d="M130,880.6H805.1v162.8H130V880.6Z" class="g0_1" />
<path fill-rule="evenodd" d="M130,108.4H805.1V220.7H130V108.4Z" class="g0_1" />
<path fill-rule="evenodd" d="M130,220.6H805.1v34.5H130V220.6Z" class="g0_1" />
<path fill-rule="evenodd" d="M130,254.9H805.1v80.4H130V254.9Z" class="g0_1" />
<path fill-rule="evenodd" d="M130,335.2H805.1v59.7H130V335.2Z" class="g0_1" />
<path fill-rule="evenodd" d="M130,394.7H805.1v59.8H130V394.7Z" class="g0_1" />
<path fill-rule="evenodd" d="M130,454.3H805.1V617.2H130V454.3Z" class="g0_1" />
<path fill-rule="evenodd" d="M130,617H805.1V800.5H130V617Z" class="g0_1" />
<path fill-rule="evenodd" d="M130,800.4H805.1v80.3H130V800.4Z" class="g0_1" />
<path fill-rule="evenodd" d="M130,880.6H805.1v162.8H130V880.6Z" class="g0_1" />
</svg>